<mxfile host="Electron" modified="2023-12-31T15:28:14.371Z" agent="Mozilla/5.0 (Windows NT 10.0; Win64; x64) AppleWebKit/537.36 (KHTML, like Gecko) draw.io/22.1.16 Chrome/120.0.6099.109 Electron/28.1.0 Safari/537.36" etag="TnoUSBUJ1dJ_kAocKiCt" version="22.1.16" type="device">
  <diagram id="fMbqoMuf71cKViRd1xp_" name="Page-2">
    <mxGraphModel dx="5310" dy="3293" grid="1" gridSize="10" guides="1" tooltips="1" connect="1" arrows="1" fold="1" page="1" pageScale="1" pageWidth="850" pageHeight="1100" math="0" shadow="0">
      <root>
        <mxCell id="0" />
        <mxCell id="1" parent="0" />
        <mxCell id="tvVsOm8R2GuRzqtLwSJp-1" value="US Armed Forces 1970s" style="rounded=0;whiteSpace=wrap;html=1;" vertex="1" parent="1">
          <mxGeometry x="1110" width="120" height="60" as="geometry" />
        </mxCell>
        <mxCell id="tvVsOm8R2GuRzqtLwSJp-2" style="edgeStyle=orthogonalEdgeStyle;rounded=0;orthogonalLoop=1;jettySize=auto;html=1;" edge="1" parent="1" source="tvVsOm8R2GuRzqtLwSJp-4" target="tvVsOm8R2GuRzqtLwSJp-7">
          <mxGeometry relative="1" as="geometry" />
        </mxCell>
        <mxCell id="tvVsOm8R2GuRzqtLwSJp-3" style="edgeStyle=orthogonalEdgeStyle;rounded=0;orthogonalLoop=1;jettySize=auto;html=1;" edge="1" parent="1" source="tvVsOm8R2GuRzqtLwSJp-4" target="tvVsOm8R2GuRzqtLwSJp-10">
          <mxGeometry relative="1" as="geometry" />
        </mxCell>
        <mxCell id="tvVsOm8R2GuRzqtLwSJp-4" value="US Army" style="rounded=0;whiteSpace=wrap;html=1;" vertex="1" parent="1">
          <mxGeometry x="330" y="160" width="120" height="60" as="geometry" />
        </mxCell>
        <mxCell id="tvVsOm8R2GuRzqtLwSJp-5" style="edgeStyle=orthogonalEdgeStyle;rounded=0;orthogonalLoop=1;jettySize=auto;html=1;" edge="1" parent="1" source="tvVsOm8R2GuRzqtLwSJp-7" target="tvVsOm8R2GuRzqtLwSJp-18">
          <mxGeometry relative="1" as="geometry" />
        </mxCell>
        <mxCell id="tvVsOm8R2GuRzqtLwSJp-6" style="edgeStyle=orthogonalEdgeStyle;rounded=0;orthogonalLoop=1;jettySize=auto;html=1;" edge="1" parent="1" source="tvVsOm8R2GuRzqtLwSJp-7" target="tvVsOm8R2GuRzqtLwSJp-20">
          <mxGeometry relative="1" as="geometry" />
        </mxCell>
        <mxCell id="tvVsOm8R2GuRzqtLwSJp-7" value="&lt;span&gt;Expand Bradley Cavalry Unit Numbers&lt;/span&gt;" style="rounded=0;whiteSpace=wrap;html=1;" vertex="1" parent="1">
          <mxGeometry x="130" y="260" width="120" height="60" as="geometry" />
        </mxCell>
        <mxCell id="tvVsOm8R2GuRzqtLwSJp-8" style="edgeStyle=orthogonalEdgeStyle;rounded=0;orthogonalLoop=1;jettySize=auto;html=1;" edge="1" parent="1" source="tvVsOm8R2GuRzqtLwSJp-10" target="tvVsOm8R2GuRzqtLwSJp-15">
          <mxGeometry relative="1" as="geometry" />
        </mxCell>
        <mxCell id="tvVsOm8R2GuRzqtLwSJp-9" style="edgeStyle=orthogonalEdgeStyle;rounded=0;orthogonalLoop=1;jettySize=auto;html=1;" edge="1" parent="1" source="tvVsOm8R2GuRzqtLwSJp-10" target="tvVsOm8R2GuRzqtLwSJp-12">
          <mxGeometry relative="1" as="geometry" />
        </mxCell>
        <mxCell id="tvVsOm8R2GuRzqtLwSJp-10" value="Equip Infantry Formations with the M16A2 en Masse" style="rounded=0;whiteSpace=wrap;html=1;" vertex="1" parent="1">
          <mxGeometry x="540" y="260" width="120" height="60" as="geometry" />
        </mxCell>
        <mxCell id="tvVsOm8R2GuRzqtLwSJp-11" style="edgeStyle=orthogonalEdgeStyle;rounded=0;orthogonalLoop=1;jettySize=auto;html=1;" edge="1" parent="1" source="tvVsOm8R2GuRzqtLwSJp-12" target="tvVsOm8R2GuRzqtLwSJp-15">
          <mxGeometry relative="1" as="geometry" />
        </mxCell>
        <mxCell id="tvVsOm8R2GuRzqtLwSJp-12" value="Begin Design Studies for Interceptor Body Armour" style="rounded=0;whiteSpace=wrap;html=1;" vertex="1" parent="1">
          <mxGeometry x="630" y="360" width="120" height="60" as="geometry" />
        </mxCell>
        <mxCell id="tvVsOm8R2GuRzqtLwSJp-13" value="" style="edgeStyle=orthogonalEdgeStyle;rounded=0;orthogonalLoop=1;jettySize=auto;html=1;" edge="1" parent="1" source="tvVsOm8R2GuRzqtLwSJp-15" target="tvVsOm8R2GuRzqtLwSJp-12">
          <mxGeometry relative="1" as="geometry" />
        </mxCell>
        <mxCell id="tvVsOm8R2GuRzqtLwSJp-14" style="edgeStyle=orthogonalEdgeStyle;rounded=0;orthogonalLoop=1;jettySize=auto;html=1;" edge="1" parent="1" source="tvVsOm8R2GuRzqtLwSJp-15" target="tvVsOm8R2GuRzqtLwSJp-24">
          <mxGeometry relative="1" as="geometry" />
        </mxCell>
        <mxCell id="tvVsOm8R2GuRzqtLwSJp-15" value="The M249 Squad Automatic Weapon" style="rounded=0;whiteSpace=wrap;html=1;" vertex="1" parent="1">
          <mxGeometry x="450" y="360" width="120" height="60" as="geometry" />
        </mxCell>
        <mxCell id="tvVsOm8R2GuRzqtLwSJp-16" style="edgeStyle=orthogonalEdgeStyle;rounded=0;orthogonalLoop=1;jettySize=auto;html=1;" edge="1" parent="1" source="tvVsOm8R2GuRzqtLwSJp-18" target="tvVsOm8R2GuRzqtLwSJp-22">
          <mxGeometry relative="1" as="geometry" />
        </mxCell>
        <mxCell id="tvVsOm8R2GuRzqtLwSJp-17" style="edgeStyle=orthogonalEdgeStyle;rounded=0;orthogonalLoop=1;jettySize=auto;html=1;" edge="1" parent="1" source="tvVsOm8R2GuRzqtLwSJp-18" target="tvVsOm8R2GuRzqtLwSJp-20">
          <mxGeometry relative="1" as="geometry" />
        </mxCell>
        <mxCell id="tvVsOm8R2GuRzqtLwSJp-18" value="The TOW 2" style="rounded=0;whiteSpace=wrap;html=1;" vertex="1" parent="1">
          <mxGeometry x="200" y="360" width="120" height="60" as="geometry" />
        </mxCell>
        <mxCell id="tvVsOm8R2GuRzqtLwSJp-19" style="edgeStyle=orthogonalEdgeStyle;rounded=0;orthogonalLoop=1;jettySize=auto;html=1;" edge="1" parent="1" source="tvVsOm8R2GuRzqtLwSJp-20" target="tvVsOm8R2GuRzqtLwSJp-18">
          <mxGeometry relative="1" as="geometry">
            <mxPoint x="170" y="390" as="targetPoint" />
          </mxGeometry>
        </mxCell>
        <mxCell id="tvVsOm8R2GuRzqtLwSJp-20" value="Expand Marine Corps LAV-AT Requisition" style="rounded=0;whiteSpace=wrap;html=1;" vertex="1" parent="1">
          <mxGeometry x="40" y="360" width="120" height="60" as="geometry" />
        </mxCell>
        <mxCell id="tvVsOm8R2GuRzqtLwSJp-21" style="edgeStyle=orthogonalEdgeStyle;rounded=0;orthogonalLoop=1;jettySize=auto;html=1;" edge="1" parent="1" source="tvVsOm8R2GuRzqtLwSJp-22" target="tvVsOm8R2GuRzqtLwSJp-25">
          <mxGeometry relative="1" as="geometry">
            <Array as="points">
              <mxPoint x="300" y="540" />
              <mxPoint x="390" y="540" />
            </Array>
          </mxGeometry>
        </mxCell>
        <mxCell id="tvVsOm8R2GuRzqtLwSJp-22" value="Sikorsky&#39;s Modern Utility Helicopter" style="rounded=0;whiteSpace=wrap;html=1;" vertex="1" parent="1">
          <mxGeometry x="240" y="470" width="120" height="60" as="geometry" />
        </mxCell>
        <mxCell id="tvVsOm8R2GuRzqtLwSJp-23" style="edgeStyle=orthogonalEdgeStyle;rounded=0;orthogonalLoop=1;jettySize=auto;html=1;" edge="1" parent="1" source="tvVsOm8R2GuRzqtLwSJp-24" target="tvVsOm8R2GuRzqtLwSJp-25">
          <mxGeometry relative="1" as="geometry">
            <Array as="points">
              <mxPoint x="480" y="540" />
              <mxPoint x="390" y="540" />
            </Array>
          </mxGeometry>
        </mxCell>
        <mxCell id="tvVsOm8R2GuRzqtLwSJp-24" value="Study Soviet Air Assault Tactics in Ethiopia" style="rounded=0;whiteSpace=wrap;html=1;" vertex="1" parent="1">
          <mxGeometry x="420" y="470" width="120" height="60" as="geometry" />
        </mxCell>
        <mxCell id="tvVsOm8R2GuRzqtLwSJp-25" value="Upgrade Abrams to M1A1 Standard" style="rounded=0;whiteSpace=wrap;html=1;" vertex="1" parent="1">
          <mxGeometry x="330" y="560" width="120" height="60" as="geometry" />
        </mxCell>
        <mxCell id="tvVsOm8R2GuRzqtLwSJp-26" style="edgeStyle=orthogonalEdgeStyle;rounded=0;orthogonalLoop=1;jettySize=auto;html=1;" edge="1" parent="1" source="tvVsOm8R2GuRzqtLwSJp-28" target="tvVsOm8R2GuRzqtLwSJp-43">
          <mxGeometry relative="1" as="geometry" />
        </mxCell>
        <mxCell id="tvVsOm8R2GuRzqtLwSJp-27" style="edgeStyle=orthogonalEdgeStyle;rounded=0;orthogonalLoop=1;jettySize=auto;html=1;" edge="1" parent="1" source="tvVsOm8R2GuRzqtLwSJp-28" target="tvVsOm8R2GuRzqtLwSJp-46">
          <mxGeometry relative="1" as="geometry" />
        </mxCell>
        <mxCell id="tvVsOm8R2GuRzqtLwSJp-28" value="A 600 Ship Navy?" style="rounded=0;whiteSpace=wrap;html=1;" vertex="1" parent="1">
          <mxGeometry x="1110" y="160" width="120" height="60" as="geometry" />
        </mxCell>
        <mxCell id="tvVsOm8R2GuRzqtLwSJp-29" style="edgeStyle=orthogonalEdgeStyle;rounded=0;orthogonalLoop=1;jettySize=auto;html=1;" edge="1" parent="1" source="tvVsOm8R2GuRzqtLwSJp-31" target="tvVsOm8R2GuRzqtLwSJp-64">
          <mxGeometry relative="1" as="geometry" />
        </mxCell>
        <mxCell id="tvVsOm8R2GuRzqtLwSJp-30" style="edgeStyle=orthogonalEdgeStyle;rounded=0;orthogonalLoop=1;jettySize=auto;html=1;" edge="1" parent="1" source="tvVsOm8R2GuRzqtLwSJp-31" target="tvVsOm8R2GuRzqtLwSJp-67">
          <mxGeometry relative="1" as="geometry">
            <mxPoint x="2700" y="200" as="sourcePoint" />
          </mxGeometry>
        </mxCell>
        <mxCell id="tvVsOm8R2GuRzqtLwSJp-31" value="US Air Force Strategic Refactoring&amp;nbsp;" style="rounded=0;whiteSpace=wrap;html=1;" vertex="1" parent="1">
          <mxGeometry x="2540" y="170" width="120" height="60" as="geometry" />
        </mxCell>
        <mxCell id="tvVsOm8R2GuRzqtLwSJp-32" style="edgeStyle=orthogonalEdgeStyle;rounded=0;orthogonalLoop=1;jettySize=auto;html=1;" edge="1" parent="1" source="tvVsOm8R2GuRzqtLwSJp-35" target="tvVsOm8R2GuRzqtLwSJp-39">
          <mxGeometry relative="1" as="geometry" />
        </mxCell>
        <mxCell id="tvVsOm8R2GuRzqtLwSJp-33" style="edgeStyle=orthogonalEdgeStyle;rounded=0;orthogonalLoop=1;jettySize=auto;html=1;" edge="1" parent="1" source="tvVsOm8R2GuRzqtLwSJp-35" target="tvVsOm8R2GuRzqtLwSJp-37">
          <mxGeometry relative="1" as="geometry" />
        </mxCell>
        <mxCell id="tvVsOm8R2GuRzqtLwSJp-34" style="edgeStyle=orthogonalEdgeStyle;rounded=0;orthogonalLoop=1;jettySize=auto;html=1;" edge="1" parent="1" source="tvVsOm8R2GuRzqtLwSJp-35" target="tvVsOm8R2GuRzqtLwSJp-36">
          <mxGeometry relative="1" as="geometry" />
        </mxCell>
        <mxCell id="tvVsOm8R2GuRzqtLwSJp-35" value="US Missile Command" style="rounded=0;whiteSpace=wrap;html=1;" vertex="1" parent="1">
          <mxGeometry x="-260" y="185" width="120" height="60" as="geometry" />
        </mxCell>
        <mxCell id="tvVsOm8R2GuRzqtLwSJp-36" value="Pershing Tactical Ballistic Missile Deployment" style="rounded=0;whiteSpace=wrap;html=1;" vertex="1" parent="1">
          <mxGeometry x="-125" y="275" width="120" height="60" as="geometry" />
        </mxCell>
        <mxCell id="tvVsOm8R2GuRzqtLwSJp-37" value="Advanced Cruise Missile Development" style="rounded=0;whiteSpace=wrap;html=1;" vertex="1" parent="1">
          <mxGeometry x="-400" y="275" width="120" height="60" as="geometry" />
        </mxCell>
        <mxCell id="tvVsOm8R2GuRzqtLwSJp-38" value="" style="edgeStyle=orthogonalEdgeStyle;rounded=0;orthogonalLoop=1;jettySize=auto;html=1;" edge="1" parent="1" source="tvVsOm8R2GuRzqtLwSJp-39" target="tvVsOm8R2GuRzqtLwSJp-40">
          <mxGeometry relative="1" as="geometry" />
        </mxCell>
        <mxCell id="tvVsOm8R2GuRzqtLwSJp-39" value="Improve Missile Launch Awareness" style="rounded=0;whiteSpace=wrap;html=1;" vertex="1" parent="1">
          <mxGeometry x="-260" y="365" width="120" height="60" as="geometry" />
        </mxCell>
        <mxCell id="tvVsOm8R2GuRzqtLwSJp-40" value="&lt;span&gt;The Minuteman IV&lt;/span&gt;" style="rounded=0;whiteSpace=wrap;html=1;" vertex="1" parent="1">
          <mxGeometry x="-260" y="475" width="120" height="60" as="geometry" />
        </mxCell>
        <mxCell id="tvVsOm8R2GuRzqtLwSJp-41" style="edgeStyle=orthogonalEdgeStyle;rounded=0;orthogonalLoop=1;jettySize=auto;html=1;" edge="1" parent="1" source="tvVsOm8R2GuRzqtLwSJp-43" target="tvVsOm8R2GuRzqtLwSJp-57">
          <mxGeometry relative="1" as="geometry" />
        </mxCell>
        <mxCell id="tvVsOm8R2GuRzqtLwSJp-42" style="edgeStyle=orthogonalEdgeStyle;rounded=0;orthogonalLoop=1;jettySize=auto;html=1;" edge="1" parent="1" source="tvVsOm8R2GuRzqtLwSJp-43" target="tvVsOm8R2GuRzqtLwSJp-55">
          <mxGeometry relative="1" as="geometry" />
        </mxCell>
        <mxCell id="tvVsOm8R2GuRzqtLwSJp-43" value="&lt;b&gt;Upgrade Los Angeles Class SSNs&lt;/b&gt;" style="rounded=0;whiteSpace=wrap;html=1;" vertex="1" parent="1">
          <mxGeometry x="895" y="247" width="120" height="60" as="geometry" />
        </mxCell>
        <mxCell id="tvVsOm8R2GuRzqtLwSJp-44" style="edgeStyle=orthogonalEdgeStyle;rounded=0;orthogonalLoop=1;jettySize=auto;html=1;" edge="1" parent="1" source="tvVsOm8R2GuRzqtLwSJp-46" target="tvVsOm8R2GuRzqtLwSJp-50">
          <mxGeometry relative="1" as="geometry" />
        </mxCell>
        <mxCell id="tvVsOm8R2GuRzqtLwSJp-45" style="edgeStyle=orthogonalEdgeStyle;rounded=0;orthogonalLoop=1;jettySize=auto;html=1;" edge="1" parent="1" source="tvVsOm8R2GuRzqtLwSJp-46" target="tvVsOm8R2GuRzqtLwSJp-52">
          <mxGeometry relative="1" as="geometry" />
        </mxCell>
        <mxCell id="tvVsOm8R2GuRzqtLwSJp-46" value="Carrier Power Projection Focus" style="rounded=0;whiteSpace=wrap;html=1;" vertex="1" parent="1">
          <mxGeometry x="1330" y="250" width="120" height="60" as="geometry" />
        </mxCell>
        <mxCell id="tvVsOm8R2GuRzqtLwSJp-47" value="" style="edgeStyle=orthogonalEdgeStyle;rounded=0;orthogonalLoop=1;jettySize=auto;html=1;" edge="1" parent="1" source="tvVsOm8R2GuRzqtLwSJp-50" target="tvVsOm8R2GuRzqtLwSJp-61">
          <mxGeometry relative="1" as="geometry" />
        </mxCell>
        <mxCell id="tvVsOm8R2GuRzqtLwSJp-48" style="edgeStyle=orthogonalEdgeStyle;rounded=0;orthogonalLoop=1;jettySize=auto;html=1;" edge="1" parent="1" source="tvVsOm8R2GuRzqtLwSJp-50" target="tvVsOm8R2GuRzqtLwSJp-52">
          <mxGeometry relative="1" as="geometry" />
        </mxCell>
        <mxCell id="tvVsOm8R2GuRzqtLwSJp-49" value="" style="edgeStyle=orthogonalEdgeStyle;rounded=0;orthogonalLoop=1;jettySize=auto;html=1;" edge="1" parent="1" source="tvVsOm8R2GuRzqtLwSJp-50" target="tvVsOm8R2GuRzqtLwSJp-103">
          <mxGeometry relative="1" as="geometry" />
        </mxCell>
        <mxCell id="tvVsOm8R2GuRzqtLwSJp-50" value="Cancel the Cruiser Baseline Program" style="rounded=0;whiteSpace=wrap;html=1;" vertex="1" parent="1">
          <mxGeometry x="1225" y="350" width="120" height="60" as="geometry" />
        </mxCell>
        <mxCell id="tvVsOm8R2GuRzqtLwSJp-51" style="edgeStyle=orthogonalEdgeStyle;rounded=0;orthogonalLoop=1;jettySize=auto;html=1;" edge="1" parent="1" source="tvVsOm8R2GuRzqtLwSJp-52" target="tvVsOm8R2GuRzqtLwSJp-50">
          <mxGeometry relative="1" as="geometry" />
        </mxCell>
        <mxCell id="tvVsOm8R2GuRzqtLwSJp-52" value="Continue the Cruiser Baseline Program" style="rounded=0;whiteSpace=wrap;html=1;" vertex="1" parent="1">
          <mxGeometry x="1420" y="350" width="120" height="60" as="geometry" />
        </mxCell>
        <mxCell id="tvVsOm8R2GuRzqtLwSJp-53" value="" style="edgeStyle=orthogonalEdgeStyle;rounded=0;orthogonalLoop=1;jettySize=auto;html=1;" edge="1" parent="1" source="tvVsOm8R2GuRzqtLwSJp-55" target="tvVsOm8R2GuRzqtLwSJp-59">
          <mxGeometry relative="1" as="geometry" />
        </mxCell>
        <mxCell id="tvVsOm8R2GuRzqtLwSJp-54" style="edgeStyle=orthogonalEdgeStyle;rounded=0;orthogonalLoop=1;jettySize=auto;html=1;" edge="1" parent="1" source="tvVsOm8R2GuRzqtLwSJp-55" target="tvVsOm8R2GuRzqtLwSJp-57">
          <mxGeometry relative="1" as="geometry" />
        </mxCell>
        <mxCell id="tvVsOm8R2GuRzqtLwSJp-55" value="Focus on the Navy&#39;s Hornets" style="rounded=0;whiteSpace=wrap;html=1;" vertex="1" parent="1">
          <mxGeometry x="975" y="350" width="120" height="60" as="geometry" />
        </mxCell>
        <mxCell id="tvVsOm8R2GuRzqtLwSJp-56" style="edgeStyle=orthogonalEdgeStyle;rounded=0;orthogonalLoop=1;jettySize=auto;html=1;" edge="1" parent="1" source="tvVsOm8R2GuRzqtLwSJp-57" target="tvVsOm8R2GuRzqtLwSJp-55">
          <mxGeometry relative="1" as="geometry">
            <mxPoint x="960" y="380" as="targetPoint" />
          </mxGeometry>
        </mxCell>
        <mxCell id="tvVsOm8R2GuRzqtLwSJp-57" value="Expand Marine VTOL Capabilities" style="rounded=0;whiteSpace=wrap;html=1;" vertex="1" parent="1">
          <mxGeometry x="815" y="350" width="120" height="60" as="geometry" />
        </mxCell>
        <mxCell id="tvVsOm8R2GuRzqtLwSJp-58" style="edgeStyle=orthogonalEdgeStyle;rounded=0;orthogonalLoop=1;jettySize=auto;html=1;" edge="1" parent="1" source="tvVsOm8R2GuRzqtLwSJp-59" target="tvVsOm8R2GuRzqtLwSJp-62">
          <mxGeometry relative="1" as="geometry">
            <Array as="points">
              <mxPoint x="1075" y="530" />
              <mxPoint x="1165" y="530" />
            </Array>
          </mxGeometry>
        </mxCell>
        <mxCell id="tvVsOm8R2GuRzqtLwSJp-59" value="The Super Stallion" style="rounded=0;whiteSpace=wrap;html=1;" vertex="1" parent="1">
          <mxGeometry x="1015" y="460" width="120" height="60" as="geometry" />
        </mxCell>
        <mxCell id="tvVsOm8R2GuRzqtLwSJp-60" style="edgeStyle=orthogonalEdgeStyle;rounded=0;orthogonalLoop=1;jettySize=auto;html=1;" edge="1" parent="1" source="tvVsOm8R2GuRzqtLwSJp-61" target="tvVsOm8R2GuRzqtLwSJp-62">
          <mxGeometry relative="1" as="geometry">
            <Array as="points">
              <mxPoint x="1255" y="530" />
              <mxPoint x="1165" y="530" />
            </Array>
          </mxGeometry>
        </mxCell>
        <mxCell id="tvVsOm8R2GuRzqtLwSJp-61" value="&lt;span style=&quot;white-space: normal&quot;&gt;The Arleigh Burke&lt;/span&gt;" style="rounded=0;whiteSpace=wrap;html=1;" vertex="1" parent="1">
          <mxGeometry x="1195" y="455" width="120" height="60" as="geometry" />
        </mxCell>
        <mxCell id="tvVsOm8R2GuRzqtLwSJp-62" value="The Wasp Class" style="rounded=0;whiteSpace=wrap;html=1;" vertex="1" parent="1">
          <mxGeometry x="1105" y="550" width="120" height="60" as="geometry" />
        </mxCell>
        <mxCell id="tvVsOm8R2GuRzqtLwSJp-63" style="edgeStyle=orthogonalEdgeStyle;rounded=0;orthogonalLoop=1;jettySize=auto;html=1;" edge="1" parent="1" source="tvVsOm8R2GuRzqtLwSJp-64" target="tvVsOm8R2GuRzqtLwSJp-130">
          <mxGeometry relative="1" as="geometry" />
        </mxCell>
        <mxCell id="tvVsOm8R2GuRzqtLwSJp-64" value="Request Proposals for the Advanced Tactical Fighter Program (ATF)" style="rounded=0;whiteSpace=wrap;html=1;" vertex="1" parent="1">
          <mxGeometry x="2170" y="250" width="120" height="60" as="geometry" />
        </mxCell>
        <mxCell id="tvVsOm8R2GuRzqtLwSJp-65" style="edgeStyle=orthogonalEdgeStyle;rounded=0;orthogonalLoop=1;jettySize=auto;html=1;" edge="1" parent="1" source="tvVsOm8R2GuRzqtLwSJp-67" target="tvVsOm8R2GuRzqtLwSJp-72">
          <mxGeometry relative="1" as="geometry" />
        </mxCell>
        <mxCell id="tvVsOm8R2GuRzqtLwSJp-66" style="edgeStyle=orthogonalEdgeStyle;rounded=0;orthogonalLoop=1;jettySize=auto;html=1;" edge="1" parent="1" source="tvVsOm8R2GuRzqtLwSJp-67" target="tvVsOm8R2GuRzqtLwSJp-119">
          <mxGeometry relative="1" as="geometry" />
        </mxCell>
        <mxCell id="tvVsOm8R2GuRzqtLwSJp-67" value="Induct the F-18 Hornet to Carrier Air Groups" style="rounded=0;whiteSpace=wrap;html=1;" vertex="1" parent="1">
          <mxGeometry x="2880" y="247" width="120" height="60" as="geometry" />
        </mxCell>
        <mxCell id="tvVsOm8R2GuRzqtLwSJp-68" style="edgeStyle=orthogonalEdgeStyle;rounded=0;orthogonalLoop=1;jettySize=auto;html=1;entryX=1;entryY=0.5;entryDx=0;entryDy=0;" edge="1" parent="1" source="tvVsOm8R2GuRzqtLwSJp-70" target="tvVsOm8R2GuRzqtLwSJp-84">
          <mxGeometry relative="1" as="geometry" />
        </mxCell>
        <mxCell id="tvVsOm8R2GuRzqtLwSJp-69" style="edgeStyle=orthogonalEdgeStyle;rounded=0;orthogonalLoop=1;jettySize=auto;html=1;" edge="1" parent="1" source="tvVsOm8R2GuRzqtLwSJp-70" target="tvVsOm8R2GuRzqtLwSJp-81">
          <mxGeometry relative="1" as="geometry" />
        </mxCell>
        <mxCell id="tvVsOm8R2GuRzqtLwSJp-70" value="Prioritise Guided Standoff Munitions" style="rounded=0;whiteSpace=wrap;html=1;align=center;" vertex="1" parent="1">
          <mxGeometry x="2960" y="450" width="120" height="60" as="geometry" />
        </mxCell>
        <mxCell id="tvVsOm8R2GuRzqtLwSJp-71" value="" style="edgeStyle=orthogonalEdgeStyle;rounded=0;orthogonalLoop=1;jettySize=auto;html=1;" edge="1" parent="1" source="tvVsOm8R2GuRzqtLwSJp-72" target="tvVsOm8R2GuRzqtLwSJp-84">
          <mxGeometry relative="1" as="geometry" />
        </mxCell>
        <mxCell id="tvVsOm8R2GuRzqtLwSJp-72" value="Blackhawks &amp;amp; Seahawks" style="rounded=0;whiteSpace=wrap;html=1;" vertex="1" parent="1">
          <mxGeometry x="2800" y="350" width="120" height="60" as="geometry" />
        </mxCell>
        <mxCell id="tvVsOm8R2GuRzqtLwSJp-73" style="edgeStyle=orthogonalEdgeStyle;rounded=0;orthogonalLoop=1;jettySize=auto;html=1;entryX=1;entryY=0.5;entryDx=0;entryDy=0;" edge="1" parent="1" source="tvVsOm8R2GuRzqtLwSJp-75" target="tvVsOm8R2GuRzqtLwSJp-79">
          <mxGeometry relative="1" as="geometry" />
        </mxCell>
        <mxCell id="tvVsOm8R2GuRzqtLwSJp-74" value="" style="edgeStyle=orthogonalEdgeStyle;rounded=0;orthogonalLoop=1;jettySize=auto;html=1;" edge="1" parent="1" source="tvVsOm8R2GuRzqtLwSJp-75" target="tvVsOm8R2GuRzqtLwSJp-138">
          <mxGeometry relative="1" as="geometry" />
        </mxCell>
        <mxCell id="tvVsOm8R2GuRzqtLwSJp-75" value="&lt;span&gt;Select the Lockeed &amp;amp; Northrop Bids for Prototype Construction&lt;/span&gt;" style="rounded=0;whiteSpace=wrap;html=1;" vertex="1" parent="1">
          <mxGeometry x="2390" y="599.5" width="120" height="60" as="geometry" />
        </mxCell>
        <mxCell id="tvVsOm8R2GuRzqtLwSJp-76" value="" style="edgeStyle=orthogonalEdgeStyle;rounded=0;orthogonalLoop=1;jettySize=auto;html=1;" edge="1" parent="1" source="tvVsOm8R2GuRzqtLwSJp-79" target="tvVsOm8R2GuRzqtLwSJp-75">
          <mxGeometry relative="1" as="geometry" />
        </mxCell>
        <mxCell id="tvVsOm8R2GuRzqtLwSJp-77" value="" style="edgeStyle=orthogonalEdgeStyle;rounded=0;orthogonalLoop=1;jettySize=auto;html=1;" edge="1" parent="1" source="tvVsOm8R2GuRzqtLwSJp-79" target="tvVsOm8R2GuRzqtLwSJp-123">
          <mxGeometry relative="1" as="geometry" />
        </mxCell>
        <mxCell id="tvVsOm8R2GuRzqtLwSJp-78" style="edgeStyle=orthogonalEdgeStyle;rounded=0;orthogonalLoop=1;jettySize=auto;html=1;" edge="1" parent="1" source="tvVsOm8R2GuRzqtLwSJp-79" target="tvVsOm8R2GuRzqtLwSJp-126">
          <mxGeometry relative="1" as="geometry" />
        </mxCell>
        <mxCell id="tvVsOm8R2GuRzqtLwSJp-79" value="Push for Flyable Have Dash Hardware" style="rounded=0;whiteSpace=wrap;html=1;" vertex="1" parent="1">
          <mxGeometry x="1930" y="599.5" width="120" height="60" as="geometry" />
        </mxCell>
        <mxCell id="tvVsOm8R2GuRzqtLwSJp-80" style="edgeStyle=orthogonalEdgeStyle;rounded=0;orthogonalLoop=1;jettySize=auto;html=1;exitX=0.5;exitY=1;exitDx=0;exitDy=0;" edge="1" parent="1" source="tvVsOm8R2GuRzqtLwSJp-81" target="tvVsOm8R2GuRzqtLwSJp-85">
          <mxGeometry relative="1" as="geometry" />
        </mxCell>
        <mxCell id="tvVsOm8R2GuRzqtLwSJp-81" value="Finalise the Advanced Tactical Bomber Program" style="rounded=0;whiteSpace=wrap;html=1;" vertex="1" parent="1">
          <mxGeometry x="2875" y="550" width="120" height="60" as="geometry" />
        </mxCell>
        <mxCell id="tvVsOm8R2GuRzqtLwSJp-82" style="edgeStyle=orthogonalEdgeStyle;rounded=0;orthogonalLoop=1;jettySize=auto;html=1;" edge="1" parent="1" source="tvVsOm8R2GuRzqtLwSJp-84" target="tvVsOm8R2GuRzqtLwSJp-70">
          <mxGeometry relative="1" as="geometry" />
        </mxCell>
        <mxCell id="tvVsOm8R2GuRzqtLwSJp-83" style="edgeStyle=orthogonalEdgeStyle;rounded=0;orthogonalLoop=1;jettySize=auto;html=1;" edge="1" parent="1" source="tvVsOm8R2GuRzqtLwSJp-84" target="tvVsOm8R2GuRzqtLwSJp-81">
          <mxGeometry relative="1" as="geometry" />
        </mxCell>
        <mxCell id="tvVsOm8R2GuRzqtLwSJp-84" value="&#xa;&#xa;&lt;span style=&quot;color: rgb(240, 240, 240); font-family: helvetica; font-size: 12px; font-style: normal; font-weight: 400; letter-spacing: normal; text-align: center; text-indent: 0px; text-transform: none; word-spacing: 0px; background-color: rgb(42, 42, 42); display: inline; float: none;&quot;&gt;Emphasise Rotary Wing CAS&lt;/span&gt;&#xa;&#xa;" style="rounded=0;whiteSpace=wrap;html=1;" vertex="1" parent="1">
          <mxGeometry x="2800" y="450" width="120" height="60" as="geometry" />
        </mxCell>
        <mxCell id="tvVsOm8R2GuRzqtLwSJp-85" value="Select the F-22 for the ATF Program" style="rounded=0;whiteSpace=wrap;html=1;" vertex="1" parent="1">
          <mxGeometry x="2650" y="825" width="120" height="60" as="geometry" />
        </mxCell>
        <mxCell id="tvVsOm8R2GuRzqtLwSJp-86" value="Utility helo &amp;amp; ASW helo 1985 production&lt;br&gt;cost -10%" style="text;html=1;resizable=0;points=[];autosize=1;align=left;verticalAlign=top;spacingTop=-4;" vertex="1" parent="1">
          <mxGeometry x="2760" y="320" width="230" height="30" as="geometry" />
        </mxCell>
        <mxCell id="tvVsOm8R2GuRzqtLwSJp-87" value="M3 Bradley production cost&lt;br&gt;reduction - 10%" style="text;html=1;resizable=0;points=[];autosize=1;align=left;verticalAlign=top;spacingTop=-4;" vertex="1" parent="1">
          <mxGeometry x="120" y="225" width="160" height="30" as="geometry" />
        </mxCell>
        <mxCell id="tvVsOm8R2GuRzqtLwSJp-88" value="1975 Cruise Missile 15%&lt;br&gt;research Bonus" style="text;html=1;resizable=0;points=[];autosize=1;align=left;verticalAlign=top;spacingTop=-4;" vertex="1" parent="1">
          <mxGeometry x="-489" y="255" width="150" height="30" as="geometry" />
        </mxCell>
        <mxCell id="tvVsOm8R2GuRzqtLwSJp-89" value="15% research buff for&lt;br&gt;Minuteman 20%" style="text;html=1;resizable=0;points=[];autosize=1;align=left;verticalAlign=top;spacingTop=-4;" vertex="1" parent="1">
          <mxGeometry x="-330" y="440" width="130" height="30" as="geometry" />
        </mxCell>
        <mxCell id="tvVsOm8R2GuRzqtLwSJp-90" value="Radar construction time&lt;br&gt;-20% nat spirit (360 days)" style="text;html=1;resizable=0;points=[];autosize=1;align=left;verticalAlign=top;spacingTop=-4;" vertex="1" parent="1">
          <mxGeometry x="-405" y="380" width="150" height="30" as="geometry" />
        </mxCell>
        <mxCell id="tvVsOm8R2GuRzqtLwSJp-91" value="+50 PP, +50 air XP" style="text;html=1;resizable=0;points=[];autosize=1;align=left;verticalAlign=top;spacingTop=-4;" vertex="1" parent="1">
          <mxGeometry x="2450" y="579.5" width="120" height="20" as="geometry" />
        </mxCell>
        <mxCell id="tvVsOm8R2GuRzqtLwSJp-92" value="Maybe a lot of money?&lt;br&gt;Or somehow make this very costly" style="text;html=1;resizable=0;points=[];autosize=1;align=right;verticalAlign=top;spacingTop=-4;" vertex="1" parent="1">
          <mxGeometry x="1730" y="599.5" width="200" height="30" as="geometry" />
        </mxCell>
        <mxCell id="tvVsOm8R2GuRzqtLwSJp-93" value="Research Speed&lt;br&gt;1995 stealth bomber +20%" style="text;html=1;resizable=0;points=[];autosize=1;align=left;verticalAlign=top;spacingTop=-4;" vertex="1" parent="1">
          <mxGeometry x="2995" y="580" width="160" height="30" as="geometry" />
        </mxCell>
        <mxCell id="tvVsOm8R2GuRzqtLwSJp-94" value="Research Speed&lt;br&gt;1990 air to ground&lt;br&gt;missile +25%" style="text;html=1;resizable=0;points=[];autosize=1;align=left;verticalAlign=top;spacingTop=-4;" vertex="1" parent="1">
          <mxGeometry x="3030" y="405" width="110" height="40" as="geometry" />
        </mxCell>
        <mxCell id="tvVsOm8R2GuRzqtLwSJp-95" value="+150 max&lt;br&gt;Air XP and flavour event" style="text;html=1;resizable=0;points=[];autosize=1;align=left;verticalAlign=top;spacingTop=-4;" vertex="1" parent="1">
          <mxGeometry x="2400" y="217" width="140" height="30" as="geometry" />
        </mxCell>
        <mxCell id="tvVsOm8R2GuRzqtLwSJp-96" value="Carrier Fighter 1985 production&lt;br&gt;cost -20%" style="text;html=1;resizable=0;points=[];autosize=1;align=left;verticalAlign=top;spacingTop=-4;" vertex="1" parent="1">
          <mxGeometry x="2995" y="212" width="180" height="30" as="geometry" />
        </mxCell>
        <mxCell id="tvVsOm8R2GuRzqtLwSJp-97" value="20% research bonus&lt;br&gt;&amp;nbsp;speed for F-4C" style="text;html=1;resizable=0;points=[];autosize=1;align=left;verticalAlign=top;spacingTop=-4;" vertex="1" parent="1">
          <mxGeometry x="3080" y="320" width="130" height="30" as="geometry" />
        </mxCell>
        <mxCell id="tvVsOm8R2GuRzqtLwSJp-98" value="This should be an event&lt;br&gt;defines the political angle of&lt;br&gt;US Naval doctrine" style="text;html=1;resizable=0;points=[];autosize=1;align=left;verticalAlign=top;spacingTop=-4;" vertex="1" parent="1">
          <mxGeometry x="1410" y="205" width="160" height="40" as="geometry" />
        </mxCell>
        <mxCell id="tvVsOm8R2GuRzqtLwSJp-99" value="F/A-18A 10% production cost&lt;br&gt;reduction" style="text;html=1;resizable=0;points=[];autosize=1;align=left;verticalAlign=top;spacingTop=-4;" vertex="1" parent="1">
          <mxGeometry x="1025" y="310" width="170" height="30" as="geometry" />
        </mxCell>
        <mxCell id="tvVsOm8R2GuRzqtLwSJp-100" value="M1A1 10% production cost&lt;br&gt;reduction" style="text;html=1;resizable=0;points=[];autosize=1;align=left;verticalAlign=top;spacingTop=-4;" vertex="1" parent="1">
          <mxGeometry x="456" y="564" width="160" height="30" as="geometry" />
        </mxCell>
        <mxCell id="tvVsOm8R2GuRzqtLwSJp-101" value="25% reduced ahead of time penalty&lt;br&gt;for body armour 1990" style="text;html=1;resizable=0;points=[];autosize=1;align=left;verticalAlign=top;spacingTop=-4;" vertex="1" parent="1">
          <mxGeometry x="620" y="425" width="200" height="30" as="geometry" />
        </mxCell>
        <mxCell id="tvVsOm8R2GuRzqtLwSJp-102" value="Research Bonus for 1985&lt;br&gt;battlecruiser, 15% OR 20%" style="text;html=1;resizable=0;points=[];autosize=1;align=left;verticalAlign=top;spacingTop=-4;" vertex="1" parent="1">
          <mxGeometry x="1420" y="415" width="160" height="30" as="geometry" />
        </mxCell>
        <mxCell id="tvVsOm8R2GuRzqtLwSJp-103" value="2 non-specific 20% research&lt;br&gt;bonuses for naval modules" style="text;html=1;resizable=0;points=[];autosize=1;align=left;verticalAlign=top;spacingTop=-4;" vertex="1" parent="1">
          <mxGeometry x="1200" y="307" width="170" height="30" as="geometry" />
        </mxCell>
        <mxCell id="tvVsOm8R2GuRzqtLwSJp-104" value="-20% research bonus for LMG 1985" style="text;html=1;resizable=0;points=[];autosize=1;align=left;verticalAlign=top;spacingTop=-4;" vertex="1" parent="1">
          <mxGeometry x="380" y="340" width="210" height="20" as="geometry" />
        </mxCell>
        <mxCell id="tvVsOm8R2GuRzqtLwSJp-105" value="10% research speed for&lt;br&gt;85 mid size sub hull" style="text;html=1;resizable=0;points=[];autosize=1;align=left;verticalAlign=top;spacingTop=-4;" vertex="1" parent="1">
          <mxGeometry x="965" y="212" width="140" height="30" as="geometry" />
        </mxCell>
        <mxCell id="tvVsOm8R2GuRzqtLwSJp-106" value="Not sure yet, probably a&lt;br&gt;research bonus for destroyer&lt;br&gt;hull" style="text;html=1;resizable=0;points=[];autosize=1;align=left;verticalAlign=top;spacingTop=-4;" vertex="1" parent="1">
          <mxGeometry x="1270" y="515" width="170" height="40" as="geometry" />
        </mxCell>
        <mxCell id="tvVsOm8R2GuRzqtLwSJp-107" value="+20% research speed for&lt;br&gt;Advancer Air Assault Operations (1990)" style="text;html=1;resizable=0;points=[];autosize=1;align=left;verticalAlign=top;spacingTop=-4;" vertex="1" parent="1">
          <mxGeometry x="551" y="476" width="230" height="30" as="geometry" />
        </mxCell>
        <mxCell id="tvVsOm8R2GuRzqtLwSJp-108" value="-50% ahead of time&lt;br&gt;research penalty&lt;br&gt;for 1985 VTOL" style="text;html=1;resizable=0;points=[];autosize=1;align=left;verticalAlign=top;spacingTop=-4;" vertex="1" parent="1">
          <mxGeometry x="790" y="295" width="120" height="40" as="geometry" />
        </mxCell>
        <mxCell id="tvVsOm8R2GuRzqtLwSJp-109" value="Light carrier hull research bonus, 15%?" style="text;html=1;resizable=0;points=[];autosize=1;align=left;verticalAlign=top;spacingTop=-4;" vertex="1" parent="1">
          <mxGeometry x="1160" y="610" width="220" height="20" as="geometry" />
        </mxCell>
        <mxCell id="tvVsOm8R2GuRzqtLwSJp-110" value="-20% production&lt;br&gt;Cost for M16A2" style="text;html=1;resizable=0;points=[];autosize=1;align=left;verticalAlign=top;spacingTop=-4;" vertex="1" parent="1">
          <mxGeometry x="610" y="220" width="100" height="30" as="geometry" />
        </mxCell>
        <mxCell id="tvVsOm8R2GuRzqtLwSJp-111" value="LAV-AT production cost&lt;br&gt;reduction - 10%" style="text;html=1;resizable=0;points=[];autosize=1;align=left;verticalAlign=top;spacingTop=-4;" vertex="1" parent="1">
          <mxGeometry x="40" y="425" width="140" height="30" as="geometry" />
        </mxCell>
        <mxCell id="tvVsOm8R2GuRzqtLwSJp-112" value="TOW 2 20% research&lt;br&gt;cost reduction" style="text;html=1;resizable=0;points=[];autosize=1;align=left;verticalAlign=top;spacingTop=-4;" vertex="1" parent="1">
          <mxGeometry x="260" y="325" width="130" height="30" as="geometry" />
        </mxCell>
        <mxCell id="tvVsOm8R2GuRzqtLwSJp-113" value="25% research bonus for UH60A" style="text;html=1;resizable=0;points=[];autosize=1;align=left;verticalAlign=top;spacingTop=-4;" vertex="1" parent="1">
          <mxGeometry x="120" y="530" width="180" height="20" as="geometry" />
        </mxCell>
        <mxCell id="tvVsOm8R2GuRzqtLwSJp-114" value="Production&lt;br&gt;cost -15%&lt;br&gt;" style="text;html=1;resizable=0;points=[];autosize=1;align=left;verticalAlign=top;spacingTop=-4;" vertex="1" parent="1">
          <mxGeometry x="-60" y="239" width="70" height="30" as="geometry" />
        </mxCell>
        <mxCell id="tvVsOm8R2GuRzqtLwSJp-115" value="Attack helo 1985 production&lt;br&gt;cost -5%" style="text;html=1;resizable=0;points=[];autosize=1;align=left;verticalAlign=top;spacingTop=-4;" vertex="1" parent="1">
          <mxGeometry x="2770" y="420" width="160" height="30" as="geometry" />
        </mxCell>
        <mxCell id="tvVsOm8R2GuRzqtLwSJp-116" value="Research Speed&lt;br&gt;1995 stealth fighter +30%&lt;br&gt;ahead of time -20%" style="text;html=1;resizable=0;points=[];autosize=1;align=left;verticalAlign=top;spacingTop=-4;" vertex="1" parent="1">
          <mxGeometry x="2710" y="835" width="150" height="40" as="geometry" />
        </mxCell>
        <mxCell id="tvVsOm8R2GuRzqtLwSJp-117" value="CH-53E 10% production cost&lt;br&gt;reduction" style="text;html=1;resizable=0;points=[];autosize=1;align=left;verticalAlign=top;spacingTop=-4;" vertex="1" parent="1">
          <mxGeometry x="910" y="440" width="170" height="30" as="geometry" />
        </mxCell>
        <mxCell id="tvVsOm8R2GuRzqtLwSJp-118" style="edgeStyle=orthogonalEdgeStyle;rounded=0;orthogonalLoop=1;jettySize=auto;html=1;" edge="1" parent="1" source="tvVsOm8R2GuRzqtLwSJp-119" target="tvVsOm8R2GuRzqtLwSJp-70">
          <mxGeometry relative="1" as="geometry" />
        </mxCell>
        <mxCell id="tvVsOm8R2GuRzqtLwSJp-119" value="Utilise Computer Aided Design to minimise RCS" style="rounded=0;whiteSpace=wrap;html=1;" vertex="1" parent="1">
          <mxGeometry x="2960" y="350" width="120" height="60" as="geometry" />
        </mxCell>
        <mxCell id="tvVsOm8R2GuRzqtLwSJp-120" value="Event (ask me to write it soon):&lt;br&gt;The USAF Armament Lab produces a&lt;br&gt;flyable Have Dash I concept prototype but&lt;br&gt;it is unsuitable for service" style="text;html=1;align=center;verticalAlign=middle;resizable=0;points=[];autosize=1;strokeColor=none;" vertex="1" parent="1">
          <mxGeometry x="1770" y="535" width="240" height="60" as="geometry" />
        </mxCell>
        <mxCell id="tvVsOm8R2GuRzqtLwSJp-121" style="edgeStyle=orthogonalEdgeStyle;rounded=0;orthogonalLoop=1;jettySize=auto;html=1;" edge="1" parent="1" source="tvVsOm8R2GuRzqtLwSJp-123" target="tvVsOm8R2GuRzqtLwSJp-126">
          <mxGeometry relative="1" as="geometry" />
        </mxCell>
        <mxCell id="tvVsOm8R2GuRzqtLwSJp-122" style="edgeStyle=orthogonalEdgeStyle;rounded=0;orthogonalLoop=1;jettySize=auto;html=1;" edge="1" parent="1" source="tvVsOm8R2GuRzqtLwSJp-123" target="tvVsOm8R2GuRzqtLwSJp-138">
          <mxGeometry relative="1" as="geometry" />
        </mxCell>
        <mxCell id="tvVsOm8R2GuRzqtLwSJp-123" value="Drop the Have Dash Program" style="rounded=0;whiteSpace=wrap;html=1;" vertex="1" parent="1">
          <mxGeometry x="2050" y="699.5" width="120" height="60" as="geometry" />
        </mxCell>
        <mxCell id="tvVsOm8R2GuRzqtLwSJp-124" style="edgeStyle=orthogonalEdgeStyle;rounded=0;orthogonalLoop=1;jettySize=auto;html=1;" edge="1" parent="1" source="tvVsOm8R2GuRzqtLwSJp-126" target="tvVsOm8R2GuRzqtLwSJp-123">
          <mxGeometry relative="1" as="geometry" />
        </mxCell>
        <mxCell id="tvVsOm8R2GuRzqtLwSJp-125" style="edgeStyle=orthogonalEdgeStyle;rounded=0;orthogonalLoop=1;jettySize=auto;html=1;entryX=0;entryY=0.5;entryDx=0;entryDy=0;" edge="1" parent="1" source="tvVsOm8R2GuRzqtLwSJp-126" target="tvVsOm8R2GuRzqtLwSJp-85">
          <mxGeometry relative="1" as="geometry">
            <Array as="points">
              <mxPoint x="1870" y="855" />
            </Array>
          </mxGeometry>
        </mxCell>
        <mxCell id="tvVsOm8R2GuRzqtLwSJp-126" value="Adapt Have Dash for the ATF Aircraft" style="whiteSpace=wrap;html=1;rounded=0;" vertex="1" parent="1">
          <mxGeometry x="1810" y="699.5" width="120" height="60" as="geometry" />
        </mxCell>
        <mxCell id="tvVsOm8R2GuRzqtLwSJp-127" value="Flavour event about Have Dash ask me to write" style="text;html=1;align=center;verticalAlign=middle;resizable=0;points=[];autosize=1;strokeColor=none;" vertex="1" parent="1">
          <mxGeometry x="2120" y="599.5" width="270" height="20" as="geometry" />
        </mxCell>
        <mxCell id="tvVsOm8R2GuRzqtLwSJp-128" style="edgeStyle=orthogonalEdgeStyle;rounded=0;orthogonalLoop=1;jettySize=auto;html=1;exitX=0.5;exitY=1;exitDx=0;exitDy=0;" edge="1" parent="1" source="tvVsOm8R2GuRzqtLwSJp-130" target="tvVsOm8R2GuRzqtLwSJp-79">
          <mxGeometry relative="1" as="geometry" />
        </mxCell>
        <mxCell id="tvVsOm8R2GuRzqtLwSJp-129" style="edgeStyle=orthogonalEdgeStyle;rounded=0;orthogonalLoop=1;jettySize=auto;html=1;exitX=0.5;exitY=1;exitDx=0;exitDy=0;" edge="1" parent="1" source="tvVsOm8R2GuRzqtLwSJp-130" target="tvVsOm8R2GuRzqtLwSJp-75">
          <mxGeometry relative="1" as="geometry" />
        </mxCell>
        <mxCell id="tvVsOm8R2GuRzqtLwSJp-130" value="Begin the Have Dash Program" style="rounded=0;whiteSpace=wrap;html=1;" vertex="1" parent="1">
          <mxGeometry x="2170" y="434.5" width="120" height="60" as="geometry" />
        </mxCell>
        <mxCell id="tvVsOm8R2GuRzqtLwSJp-131" value="" style="shape=image;verticalLabelPosition=bottom;labelBackgroundColor=#ffffff;verticalAlign=top;aspect=fixed;imageAspect=0;image=https://upload.wikimedia.org/wikipedia/commons/b/ba/F-22_RFI.jpg;" vertex="1" parent="1">
          <mxGeometry x="2055" y="160" width="100.92" height="160" as="geometry" />
        </mxCell>
        <mxCell id="tvVsOm8R2GuRzqtLwSJp-132" value="Flavour event with this pic" style="text;html=1;align=center;verticalAlign=middle;resizable=0;points=[];autosize=1;strokeColor=none;" vertex="1" parent="1">
          <mxGeometry x="2040" y="320" width="150" height="20" as="geometry" />
        </mxCell>
        <mxCell id="tvVsOm8R2GuRzqtLwSJp-133" value="Research Speed&lt;br&gt;1980 long range AAM +10%" style="text;html=1;resizable=0;points=[];autosize=1;align=left;verticalAlign=top;spacingTop=-4;" vertex="1" parent="1">
          <mxGeometry x="2290" y="430.5" width="170" height="30" as="geometry" />
        </mxCell>
        <mxCell id="tvVsOm8R2GuRzqtLwSJp-134" value="+50 PP, +50 air XP" style="text;html=1;resizable=0;points=[];autosize=1;align=left;verticalAlign=top;spacingTop=-4;" vertex="1" parent="1">
          <mxGeometry x="2110" y="679.5" width="120" height="20" as="geometry" />
        </mxCell>
        <mxCell id="tvVsOm8R2GuRzqtLwSJp-135" value="Maybe a lot of money?&lt;br&gt;Or somehow make this very costly" style="text;html=1;resizable=0;points=[];autosize=1;align=right;verticalAlign=top;spacingTop=-4;" vertex="1" parent="1">
          <mxGeometry x="1670" y="669.5" width="200" height="30" as="geometry" />
        </mxCell>
        <mxCell id="tvVsOm8R2GuRzqtLwSJp-136" value="Event (ask me to write it soon):&lt;br&gt;The USAF Armament Lab produces a&lt;br&gt;flyable Have Dash II concept prototype but&lt;br&gt;it is extremely costly&lt;br&gt;&lt;br&gt;Focus also grants 2000 Long-range AAM tech for free" style="text;html=1;align=center;verticalAlign=middle;resizable=0;points=[];autosize=1;strokeColor=none;" vertex="1" parent="1">
          <mxGeometry x="1540" y="710" width="300" height="90" as="geometry" />
        </mxCell>
        <mxCell id="tvVsOm8R2GuRzqtLwSJp-137" style="edgeStyle=orthogonalEdgeStyle;rounded=0;orthogonalLoop=1;jettySize=auto;html=1;entryX=0;entryY=0.5;entryDx=0;entryDy=0;exitX=0.5;exitY=1;exitDx=0;exitDy=0;" edge="1" parent="1" source="tvVsOm8R2GuRzqtLwSJp-138" target="tvVsOm8R2GuRzqtLwSJp-85">
          <mxGeometry relative="1" as="geometry" />
        </mxCell>
        <mxCell id="tvVsOm8R2GuRzqtLwSJp-138" value="&lt;span style=&quot;font-family: &amp;#34;helvetica&amp;#34;&quot;&gt;Introduce System Requirement Reviews to Prevent Cost Overruns&lt;/span&gt;" style="rounded=0;whiteSpace=wrap;html=1;" vertex="1" parent="1">
          <mxGeometry x="2390" y="699.5" width="120" height="60" as="geometry" />
        </mxCell>
        <mxCell id="tvVsOm8R2GuRzqtLwSJp-139" value="Stealth fighter 1995 production&lt;br&gt;cost -15%" style="text;html=1;resizable=0;points=[];autosize=1;align=left;verticalAlign=top;spacingTop=-4;" vertex="1" parent="1">
          <mxGeometry x="2460" y="669.5" width="180" height="30" as="geometry" />
        </mxCell>
        <mxCell id="tvVsOm8R2GuRzqtLwSJp-140" value="The idea with this row is to choose between&amp;nbsp;&lt;br&gt;free ahead of time 2005 air to air missile&lt;br&gt;(have dash ATF) or cheaper F-22 production" style="text;html=1;align=left;verticalAlign=middle;resizable=0;points=[];autosize=1;strokeColor=none;" vertex="1" parent="1">
          <mxGeometry x="2510" y="704.5" width="250" height="50" as="geometry" />
        </mxCell>
        <mxCell id="tvVsOm8R2GuRzqtLwSJp-141" value="Dropping have dash allows systme review focus" style="text;html=1;align=center;verticalAlign=middle;resizable=0;points=[];autosize=1;strokeColor=none;" vertex="1" parent="1">
          <mxGeometry x="2110" y="754.5" width="270" height="20" as="geometry" />
        </mxCell>
      </root>
    </mxGraphModel>
  </diagram>
</mxfile>
